# xmcd CD database file
#
# Track frame offsets:
#	150
#	28980
#	63528
#	89351
#	132215
#	161363
#	197627
#	236946
#
# Disc length: 3505 seconds
#
# Revision: 1
# Processed by: cddbd v1.5.2PL0 Copyright (c) Steve Scherf et al.
# Submitted via: CDex 1.76
#
DISCID=6d0daf08
DTITLE=David Young w/ Robin Berry - Solace
DYEAR=2008
DGENRE=New Age
TTITLE0=Ancient Dialogues, The
TTITLE1=Calling All Souls
TTITLE2=Sojourn
TTITLE3=Zen Master, The
TTITLE4=Solace
TTITLE5=Divine Transformation
TTITLE6=Of Heaven and Earth
TTITLE7=Ascendence
EXTD=YEAR: 2008
EXTT0=
EXTT1=
EXTT2=
EXTT3=
EXTT4=
EXTT5=
EXTT6=
EXTT7=
PLAYORDER=
